<?xml version="1.0" encoding="utf-8"?>
<!-- Generator: Adobe Illustrator 26.0.1, SVG Export Plug-In . SVG Version: 6.00 Build 0)  -->
<svg version="1.1" xmlns="http://www.w3.org/2000/svg" xmlns:xlink="http://www.w3.org/1999/xlink" x="0px" y="0px"
	 viewBox="0 0 148.12 217.94" style="enable-background:new 0 0 148.12 217.94;" xml:space="preserve">
<style type="text/css">
	.st0{fill:#FFFFFF;}
	.st1{fill:#F7F0EB;}
	.st2{fill:none;stroke:#FF3B01;stroke-width:0.5;stroke-miterlimit:10;}
	.st3{fill:#FF3B01;}
	.st4{fill:none;stroke:#FFFFFF;stroke-width:0.5;stroke-miterlimit:10;}
	.st5{fill:#FF3B01;stroke:#FFFFFF;stroke-width:0.5;stroke-miterlimit:10;}
	.st6{fill:#FBF8F5;}
	.st7{clip-path:url(#SVGID_00000003075674334222948460000003088964319921243574_);}
	.st8{fill:#F7F0EB;stroke:#FF3B01;stroke-width:0.5;stroke-miterlimit:10;}
</style>
<g id="레이어_3">
	<rect class="st0" width="148.12" height="217.94"/>
	<polygon class="st2" points="18.4,8.02 129.72,8.02 141.04,19.34 141.04,198.59 129.72,209.92 18.4,209.92 7.08,198.59 7.08,19.34 
			"/>
	<g>
		<g>
			<g>
				<path class="st2" d="M17.06,15.36L17.06,15.36L17.06,15.36c0.23,3.44,1.58,6.14,3.3,6.6c-1.72,0.46-3.07,3.16-3.3,6.6v0v0
					c-0.23-3.44-1.58-6.14-3.3-6.6C15.48,21.51,16.83,18.8,17.06,15.36z"/>
			</g>
			<g>
				<path class="st2" d="M17.06,189.36L17.06,189.36L17.06,189.36c0.23,3.44,1.58,6.14,3.3,6.6c-1.72,0.46-3.07,3.16-3.3,6.6v0v0
					c-0.23-3.44-1.58-6.14-3.3-6.6C15.48,195.51,16.83,192.8,17.06,189.36z"/>
			</g>
			<g>
				<path class="st2" d="M131.06,15.36L131.06,15.36L131.06,15.36c0.23,3.44,1.58,6.14,3.3,6.6c-1.72,0.46-3.07,3.16-3.3,6.6v0v0
					c-0.23-3.44-1.58-6.14-3.3-6.6C129.48,21.51,130.83,18.8,131.06,15.36z"/>
			</g>
			<g>
				<path class="st2" d="M131.06,189.36L131.06,189.36L131.06,189.36c0.23,3.44,1.58,6.14,3.3,6.6c-1.72,0.46-3.07,3.16-3.3,6.6v0v0
					c-0.23-3.44-1.58-6.14-3.3-6.6C129.48,195.51,130.83,192.8,131.06,189.36z"/>
			</g>
		</g>
	</g>
	<g>
		<path class="st3" d="M147.62,0.5v216.94H0.5V0.5H147.62 M148.12,0H0v217.94h148.12V0L148.12,0z"/>
	</g>
</g>
<g id="레이어_1">
</g>
<g id="레이어_2">
</g>
<g id="레이어_4">
</g>
</svg>
